<svg xmlns="http://www.w3.org/2000/svg" width="46.919" height="38.807" viewBox="0 0 46.919 38.807">
  <g id="Group_4" data-name="Group 4" transform="translate(-0.541 -0.596)">
    <rect id="Combined_Shape" data-name="Combined Shape" width="42" height="32" rx="8.448" transform="matrix(0.985, -0.174, 0.174, 0.985, 0.541, 7.89)" fill="#14b45c" opacity="0.2"/>
    <path id="Combined_Shape-2" data-name="Combined Shape" d="M32,30H8a8.009,8.009,0,0,1-8-8V8A8.009,8.009,0,0,1,8,0H32a8.009,8.009,0,0,1,8,8V22A8.009,8.009,0,0,1,32,30ZM17.4,10.266v0L21.443,22.06a.8.8,0,0,0,1.514,0l2.214-6.46H27.8a.8.8,0,1,0,0-1.6H24.6a.8.8,0,0,0-.757.54L22.2,19.333,18.157,7.54a.8.8,0,0,0-1.514,0L14.429,14H11.8a.8.8,0,1,0,0,1.6H15a.8.8,0,0,0,.757-.54L17.4,10.269Z" transform="translate(3 5)" fill="#14b45c"/>
  </g>
</svg>
